<?xml version="1.0" encoding="utf-8"?>
<!-- Generator: Adobe Illustrator 18.1.1, SVG Export Plug-In . SVG Version: 6.00 Build 0)  -->
<svg version="1.1" id="warnings" xmlns="http://www.w3.org/2000/svg" xmlns:xlink="http://www.w3.org/1999/xlink" x="0px" y="0px"
	 viewBox="0 0 48 48" enable-background="new 0 0 48 48" xml:space="preserve">
<rect id="bounds" fill="none" width="48" height="48"/>
<path id="info" fill-rule="evenodd" clip-rule="evenodd" fill="#7AC1FF" d="M24,44C13,44,4,35,4,24S13,4,24,4s20,9,20,20
	S35,44,24,44z M25.9,12.8C25.3,12.3,24.7,12,24,12c-0.7,0-1.4,0.3-1.9,0.8c-0.5,0.5-0.8,1.2-0.8,2c0,0.8,0.3,1.4,0.8,2
	c0.5,0.5,1.1,0.8,1.9,0.8c0.7,0,1.3-0.3,1.8-0.8s0.8-1.2,0.8-2C26.6,14,26.4,13.4,25.9,12.8z M28.8,33h-2.1V19.2h-6.9V21h2.1v12
	h-2.1v1.8h9V33z"/>
</svg>
