<?xml version="1.0" encoding="iso-8859-1"?>
<!-- Generator: Adobe Illustrator 19.0.0, SVG Export Plug-In . SVG Version: 6.00 Build 0)  -->
<svg version="1.1" id="Layer_1" xmlns="http://www.w3.org/2000/svg" xmlns:xlink="http://www.w3.org/1999/xlink" x="0px" y="0px"
	 viewBox="0 0 297 297" style="enable-background:new 0 0 297 297;" xml:space="preserve">
<g>
	<g>
		<g>
			<g>
				<circle style="fill:#5E4534;" cx="148.5" cy="148.5" r="148.5"/>
			</g>
		</g>
	</g>
	<path style="fill:#443124;" d="M44.22,118.35c0.87,0.066,1.74,0.124,2.61,0.187c0.037-1.066,0.079-2.132,0.123-3.197L44.22,118.35z
		"/>
	<path style="fill:#443124;" d="M295.102,124.759l-55.653-55.664c-15.956,6.778-33.221,16.396-35.949,36.405c-1,16-21,12-34,13
		c-41.165,3.675-81.791,3.021-122.67,0.037c-1.197,34.782,4.037,72.335-5.265,105.671l67.504,67.49
		c12.558,3.45,25.777,5.302,39.431,5.302c82.014,0,148.5-66.486,148.5-148.5C297,140.418,296.345,132.49,295.102,124.759z"/>
	<g>
		<g>
			<path style="fill:#E3E5E4;" d="M84.916,199.848L84.916,199.848c11.888,0,21.526-9.637,21.526-21.526V70.692H63.39v107.63
				C63.39,190.21,73.027,199.848,84.916,199.848z"/>
		</g>
		<g>
			<path style="fill:#F86E51;" d="M63.39,133.639v44.683c0,11.888,9.638,21.526,21.526,21.526l0,0
				c11.888,0,21.526-9.638,21.526-21.526v-44.683H63.39z"/>
		</g>
		<g>
			<path style="fill:#FFFFFF;" d="M60.78,76.889h48.27c2.522,0,4.566-2.044,4.566-4.566l0,0c0-2.522-2.044-4.566-4.566-4.566H60.78
				c-2.522,0-4.566,2.044-4.566,4.566l0,0C56.214,74.844,58.259,76.889,60.78,76.889z"/>
		</g>
	</g>
	<g>
		<g>
			<path style="fill:#E3E5E4;" d="M148.5,199.848L148.5,199.848c11.888,0,21.526-9.637,21.526-21.526V70.692h-43.052v107.63
				C126.974,190.21,136.612,199.848,148.5,199.848z"/>
		</g>
		<g>
			<path style="fill:#D0D5D9;" d="M149.167,70.692v129.122c11.577-0.356,20.859-9.829,20.859-21.492V70.692H149.167z"/>
		</g>
		<g>
			<path style="fill:#F86E51;" d="M126.974,133.639v44.683c0,11.888,9.637,21.526,21.526,21.526l0,0
				c11.888,0,21.526-9.638,21.526-21.526v-44.683H126.974z"/>
		</g>
		<g>
			<path style="fill:#C63C22;" d="M149.167,133.639v66.175c11.577-0.355,20.859-9.829,20.859-21.492v-44.683H149.167z"/>
		</g>
		<g>
			<path style="fill:#FFFFFF;" d="M124.365,76.889h48.27c2.522,0,4.566-2.044,4.566-4.566l0,0c0-2.522-2.044-4.566-4.566-4.566
				h-48.27c-2.522,0-4.566,2.044-4.566,4.566l0,0C119.799,74.844,121.843,76.889,124.365,76.889z"/>
		</g>
		<g>
			<path style="fill:#EDECEB;" d="M172.635,67.756h-23.468v9.132h23.468c2.522,0,4.566-2.044,4.566-4.566
				S175.157,67.756,172.635,67.756z"/>
		</g>
	</g>
	<g>
		<g>
			<path style="fill:#E3E5E4;" d="M212.084,199.848L212.084,199.848c11.888,0,21.526-9.637,21.526-21.526V70.692h-43.052v107.63
				C190.558,190.21,200.196,199.848,212.084,199.848z"/>
		</g>
		<g>
			<path style="fill:#C63C22;" d="M190.558,133.639v44.683c0,11.888,9.637,21.526,21.526,21.526l0,0
				c11.888,0,21.526-9.638,21.526-21.526v-44.683H190.558z"/>
		</g>
		<g>
			<path style="fill:#FFFFFF;" d="M187.949,76.889h48.27c2.522,0,4.566-2.044,4.566-4.566l0,0c0-2.522-2.044-4.566-4.566-4.566
				h-48.27c-2.522,0-4.566,2.044-4.566,4.566l0,0C183.383,74.844,185.427,76.889,187.949,76.889z"/>
		</g>
	</g>
	<path style="fill:#8F979B;" d="M250.5,226.243h-204c-3.866,0-7-3.134-7-7v-102c0-3.866,3.134-7,7-7h204c3.866,0,7,3.134,7,7v102
		C257.5,223.109,254.366,226.243,250.5,226.243z M53.5,212.243h190v-88h-190V212.243z"/>
	<path style="fill:#778084;" d="M250.5,110.243H149.167v14H243.5v88h-94.333v14H250.5c3.866,0,7-3.134,7-7v-102
		C257.5,113.377,254.366,110.243,250.5,110.243z"/>
</g>
<g>
</g>
<g>
</g>
<g>
</g>
<g>
</g>
<g>
</g>
<g>
</g>
<g>
</g>
<g>
</g>
<g>
</g>
<g>
</g>
<g>
</g>
<g>
</g>
<g>
</g>
<g>
</g>
<g>
</g>
</svg>
